{"accessors" : [{"bufferView" : 0, "byteOffset" : 0, "componentType" : 5123, "count" : 7296, "type" : "SCALAR", "max" : [7295], "min" : [0]}, {"bufferView" : 1, "byteOffset" : 0, "componentType" : 5126, "count" : 7296, "type" : "VEC3", "max" : [0.04947400093078613, 1.4981060028076172, 0.09491000324487686], "min" : [-0.05113299936056137, 1.4620800018310547, 0.06076199933886528], "name" : "POSITION"}, {"bufferView" : 1, "byteOffset" : 12, "componentType" : 5126, "count" : 7296, "type" : "VEC3", "max" : [1.0000040531158447, 1.0000040531158447, 1.0000033378601074], "min" : [-1.0000040531158447, -1.0000041723251343, -1.0000044107437134], "name" : "NORMAL"}, {"bufferView" : 1, "byteOffset" : 24, "componentType" : 5126, "count" : 7296, "type" : "VEC2", "max" : [1, -0], "min" : [0, -1], "name" : "TEXCOORD_0"}, {"bufferView" : 0, "byteOffset" : 14592, "componentType" : 5123, "count" : 44976, "type" : "SCALAR", "max" : [44975], "min" : [0]}, {"bufferView" : 2, "byteOffset" : 0, "componentType" : 5126, "count" : 44976, "type" : "VEC3", "max" : [0.4038309156894684, 1.6372230052947998, 0.19242297112941742], "min" : [-0.39541497826576233, -0.06183701008558273, -0.15454499423503876], "name" : "POSITION"}, {"bufferView" : 2, "byteOffset" : 12, "componentType" : 5126, "count" : 44976, "type" : "VEC3", "max" : [0.9999948143959045, 0.9999251961708069, 0.9999962449073792], "min" : [-0.9999943375587463, -0.9999998807907104, -1.0000042915344238], "name" : "NORMAL"}, {"bufferView" : 2, "byteOffset" : 24, "componentType" : 5126, "count" : 44976, "type" : "VEC2", "max" : [0.9799084067344666, -0], "min" : [0, -0.9709365367889404], "name" : "TEXCOORD_0"}, {"bufferView" : 0, "byteOffset" : 104544, "componentType" : 5123, "count" : 297, "type" : "SCALAR", "max" : [296], "min" : [0]}, {"bufferView" : 3, "byteOffset" : 0, "componentType" : 5126, "count" : 297, "type" : "VEC3", "max" : [35.061363220214844, 24.98668098449707, -27.85036277770996], "min" : [-70.2905502319336, 0.07169726490974426, -28.35036277770996], "name" : "POSITION"}, {"bufferView" : 3, "byteOffset" : 12, "componentType" : 5126, "count" : 297, "type" : "VEC3", "max" : [0.9999474287033081, 0.9899398684501648, 1.0000044107437134], "min" : [-0.9996924996376038, -1.0000044107437134, 0], "name" : "NORMAL"}, {"bufferView" : 3, "byteOffset" : 24, "componentType" : 5126, "count" : 297, "type" : "VEC2", "max" : [0.7792364954948425, -0], "min" : [0.5001165866851807, -1], "name" : "TEXCOORD_0"}, {"bufferView" : 3, "byteOffset" : 32, "componentType" : 5126, "count" : 297, "type" : "VEC2", "max" : [1, -0.9999999403953552], "min" : [0, -1.0000001192092896], "name" : "TEXCOORD_1"}], "asset" : {"generator" : "Aspose.3D 23.2", "version" : "2.0"}, "buffers" : [{"uri" : "data:application/octet-stream;base64,", "byteLength" : 1789740}], "bufferViews" : [{"buffer" : 0, "byteOffset" : 0, "byteLength" : 105140, "target" : 34963}, {"buffer" : 0, "byteOffset" : 105144, "byteLength" : 233472, "byteStride" : 32, "target" : 34962}, {"buffer" : 0, "byteOffset" : 338620, "byteLength" : 1439232, "byteStride" : 32, "target" : 34962}, {"buffer" : 0, "byteOffset" : 1777856, "byteLength" : 11880, "byteStride" : 40, "target" : 34962}], "images" : [{"uri" : "N:\\_3D\\_ART3D\\_MAGRITTE\\MAN_WITH THE HAT\\textures\\AVERAGE_MAN_BAKE_4K.psd"}], "materials" : [{"name" : "galss", "pbrMetallicRoughness" : {"baseColorFactor" : [0.800000011920929, 0.800000011920929, 0.800000011920929, 1], "metallicFactor" : 0, "roughnessFactor" : 0}, "emissiveFactor" : [0, 0, 0], "alphaMode" : "OPAQUE", "doubleSided" : false}, {"name" : "BAKE", "pbrMetallicRoughness" : {"baseColorFactor" : [0.800000011920929, 0.800000011920929, 0.800000011920929, 1], "baseColorTexture" : {"index" : 0, "texCoord" : 0}, "metallicFactor" : 0, "roughnessFactor" : 0}, "emissiveFactor" : [0, 0, 0], "alphaMode" : "OPAQUE", "doubleSided" : false}, {"name" : "Material10", "pbrMetallicRoughness" : {"baseColorFactor" : [0.08999999612569809, 0.10000000149011612, 0.10000000149011612, 1], "metallicFactor" : 0, "roughnessFactor" : 0}, "emissiveFactor" : [1, 1, 1], "alphaMode" : "OPAQUE", "doubleSided" : false}], "meshes" : [{"primitives" : [{"attributes" : {"POSITION" : 1, "NORMAL" : 2, "TEXCOORD_0" : 3}, "indices" : 0, "material" : 0, "mode" : 4}], "name" : "SCLERA.001_Sphere.003mesh.001"}, {"primitives" : [{"attributes" : {"POSITION" : 5, "NORMAL" : 6, "TEXCOORD_0" : 7}, "indices" : 4, "material" : 1, "mode" : 4}], "name" : "COAT_Planemesh"}, {"primitives" : [{"attributes" : {"POSITION" : 9, "NORMAL" : 10, "TEXCOORD_0" : 11, "TEXCOORD_1" : 12}, "indices" : 8, "material" : 2, "mode" : 4}], "name" : "_ncl1_36"}], "nodes" : [{"matrix" : [100, 0, 0, 0, 0, 99.99999999999866, 1.629206707320911E-05, 0, 0, -1.629206707320911E-05, 99.99999999999866, 0, 0, 2.8262230612717517E-22, -1.7347232642185703E-15, 1], "mesh" : 0, "name" : "SCLERA"}, {"matrix" : [100, -4.547470473098558E-10, -1.5575100237308348E-09, 0, 4.5474730106042753E-10, 99.99999999999866, 1.629206707320911E-05, 0, 1.55750994964312E-09, -1.6292067073209118E-05, 99.99999999999866, 0, -2.620225814098376E-07, 2.1827872842550278E-07, -6.036735555881023E-09, 1], "mesh" : 1, "name" : "AVERAGE_MAN"}, {"matrix" : [10, 0, 0, 0, 0, 9.999999999999972, -7.549790126404326E-07, 0, 0, 7.549790126404326E-07, 9.999999999999972, 0, 0, 0, 0, 1], "mesh" : 2, "name" : "wall_right"}], "samplers" : [{"magFilter" : 9729, "minFilter" : 9729, "wrapS" : 10497, "wrapT" : 10497}], "scene" : 0, "scenes" : [{"nodes" : [0, 1, 2]}], "textures" : [{"sampler" : 0, "source" : 0, "name" : "base_color_texture"}]}